<?xml version="1.0" encoding="utf-8"?>
<!DOCTYPE svg PUBLIC "-//W3C//DTD SVG 1.1//EN" "http://www.w3.org/Graphics/SVG/1.1/DTD/svg11.dtd">
<svg version="1.1" id="Layer_1" xmlns="http://www.w3.org/2000/svg" xmlns:xlink="http://www.w3.org/1999/xlink" x="0px" y="0px"
	 width="24px" height="24px" viewBox="0 0 24 24" enable-background="new 0 0 24 24" xml:space="preserve">
  <g
     id="g4">
    <path
       d="m 12.001,2.085 c -5.478,0 -9.916,4.438 -9.916,9.916 0,5.476 4.438,9.914 9.916,9.914 5.476,0 9.914,-4.438 9.914,-9.914 0,-5.478 -4.438,-9.916 -9.914,-9.916 z m 0.001,18 c -4.465,0 -8.084,-3.619 -8.084,-8.083 0,-4.465 3.619,-8.084 8.084,-8.084 4.464,0 8.083,3.619 8.083,8.084 0,4.464 -3.619,8.083 -8.083,8.083 z"
       id="path6" />
    <g
       transform="matrix(0.7068629,0,0,-0.70686292,3.5176451,1161.0522)"
       style="fill:#000000"
       id="g9">
      <path
         d="m 8,1625 c 0,-0.6 -0.2,-1 -0.6,-1.4 C 7,1623.2 6.5,1623 6,1623 c -0.6,0 -1,0.2 -1.4,0.6 -0.4,0.4 -0.6,0.9 -0.6,1.4 0,0.5 0.2,1 0.6,1.4 0.4,0.4 0.9,0.6 1.4,0.6 0.5,0 1,-0.2 1.4,-0.6 0.4,-0.4 0.6,-0.9 0.6,-1.4 z"
         id="path12" />
      <path
         d="m 14,1625 c 0,-0.6 -0.2,-1 -0.6,-1.4 -0.4,-0.4 -0.9,-0.6 -1.4,-0.6 -0.6,0 -1,0.2 -1.4,0.6 -0.4,0.4 -0.6,0.9 -0.6,1.4 0,0.5 0.2,1 0.6,1.4 0.4,0.4 0.9,0.6 1.4,0.6 0.5,0 1,-0.2 1.4,-0.6 0.4,-0.4 0.6,-0.9 0.6,-1.4 z"
         id="path14" />
      <path
         d="m 20,1625 c 0,-0.6 -0.2,-1 -0.6,-1.4 -0.4,-0.4 -0.9,-0.6 -1.4,-0.6 -0.6,0 -1,0.2 -1.4,0.6 -0.4,0.4 -0.6,0.9 -0.6,1.4 0,0.5 0.2,1 0.6,1.4 0.4,0.4 0.9,0.6 1.4,0.6 0.5,0 1,-0.2 1.4,-0.6 0.4,-0.4 0.6,-0.9 0.6,-1.4 z"
         id="path16" />
    </g>
  </g>
</svg>
