<svg xmlns="http://www.w3.org/2000/svg" width="24" height="24" viewBox="0 0 24 24">
  <path d="M11.999 2.085a9.914 9.914 0 0 1 9.916 9.916c0 5.476-4.438 9.914-9.916 9.914a9.913 9.913 0 0 1-9.914-9.914c0-5.478 4.438-9.916 9.914-9.916zm-.001 18a8.083 8.083 0 1 0 0-16.167 8.083 8.083 0 0 0 0 16.167z"/>
  <path d="M14.827 12.4c0 .424.142.707.425.99.282.282.636.424.99.424.423 0 .706-.142.989-.424.283-.283.424-.637.424-.99s-.141-.707-.424-.99a1.396 1.396 0 0 0-.99-.424c-.353 0-.707.142-.99.424a1.396 1.396 0 0 0-.424.99zM10.586 12.4c0 .424.142.707.424.99.283.282.637.424.99.424.424 0 .707-.142.99-.424.282-.283.424-.637.424-.99s-.142-.707-.424-.99a1.396 1.396 0 0 0-.99-.424c-.353 0-.707.142-.99.424a1.396 1.396 0 0 0-.424.99zM6.345 12.4c0 .424.141.707.424.99.283.282.636.424.99.424.424 0 .707-.142.99-.424.282-.283.424-.637.424-.99s-.142-.707-.425-.99a1.396 1.396 0 0 0-.99-.424c-.353 0-.706.142-.989.424a1.396 1.396 0 0 0-.424.99z"/>
</svg>
