<svg xmlns="http://www.w3.org/2000/svg" width="24" height="24" viewBox="0 0 24 24">
  <path d="M12.001 2.085a9.914 9.914 0 0 0-9.916 9.916c0 5.476 4.438 9.914 9.916 9.914a9.913 9.913 0 0 0 9.914-9.914c0-5.478-4.438-9.916-9.914-9.916zm.001 18a8.083 8.083 0 1 1 0-16.167 8.083 8.083 0 0 1 0 16.167z"/>
  <path d="M9.173 12.4c0 .424-.142.707-.425.99a1.396 1.396 0 0 1-.99.424c-.423 0-.706-.142-.989-.424a1.396 1.396 0 0 1-.424-.99c0-.353.141-.707.424-.99.283-.282.636-.424.99-.424.353 0 .707.142.99.424.282.283.424.637.424.99zM13.414 12.4c0 .424-.142.707-.424.99a1.396 1.396 0 0 1-.99.424c-.424 0-.707-.142-.99-.424a1.396 1.396 0 0 1-.424-.99c0-.353.142-.707.424-.99.283-.282.637-.424.99-.424s.707.142.99.424c.282.283.424.637.424.99zM17.655 12.4c0 .424-.141.707-.424.99a1.396 1.396 0 0 1-.99.424c-.424 0-.707-.142-.99-.424a1.396 1.396 0 0 1-.424-.99c0-.353.142-.707.425-.99.282-.282.636-.424.99-.424.353 0 .706.142.989.424.283.283.424.637.424.99z"/>
</svg>
