<?xml version="1.0" encoding="UTF-8" standalone="no"?>
<svg
   xmlns:dc="http://purl.org/dc/elements/1.1/"
   xmlns:cc="http://creativecommons.org/ns#"
   xmlns:rdf="http://www.w3.org/1999/02/22-rdf-syntax-ns#"
   xmlns:svg="http://www.w3.org/2000/svg"
   xmlns="http://www.w3.org/2000/svg"
   xmlns:sodipodi="http://sodipodi.sourceforge.net/DTD/sodipodi-0.dtd"
   xmlns:inkscape="http://www.inkscape.org/namespaces/inkscape"
   version="1.1"
   id="Layer_1"
   x="0px"
   y="0px"
   width="24px"
   height="24px"
   viewBox="0 0 24 24"
   enable-background="new 0 0 24 24"
   xml:space="preserve"
   inkscape:version="0.91 r13725"
   sodipodi:docname="unknown-rtl.svg"><metadata
     id="metadata13"><rdf:RDF><cc:Work
         rdf:about=""><dc:format>image/svg+xml</dc:format><dc:type
           rdf:resource="http://purl.org/dc/dcmitype/StillImage" /><dc:title></dc:title></cc:Work></rdf:RDF></metadata><defs
     id="defs11" /><sodipodi:namedview
     pagecolor="#ffffff"
     bordercolor="#666666"
     borderopacity="1"
     objecttolerance="10"
     gridtolerance="10"
     guidetolerance="10"
     inkscape:pageopacity="0"
     inkscape:pageshadow="2"
     inkscape:window-width="1345"
     inkscape:window-height="886"
     id="namedview9"
     showgrid="false"
     inkscape:zoom="9.8333333"
     inkscape:cx="12"
     inkscape:cy="12"
     inkscape:window-x="2302"
     inkscape:window-y="813"
     inkscape:window-maximized="0"
     inkscape:current-layer="Layer_1" /><g
     id="g4"
     transform="matrix(-1,0,0,1,24,0)"><path
       d="m 12.001,2.085 c -5.478,0 -9.916,4.438 -9.916,9.916 0,5.476 4.438,9.914 9.916,9.914 5.476,0 9.914,-4.438 9.914,-9.914 0,-5.478 -4.438,-9.916 -9.914,-9.916 z m 0.001,18 c -4.465,0 -8.084,-3.619 -8.084,-8.083 0,-4.465 3.619,-8.084 8.084,-8.084 4.464,0 8.083,3.619 8.083,8.084 0,4.464 -3.619,8.083 -8.083,8.083 z"
       id="path6"
       inkscape:connector-curvature="0" /><g
       transform="matrix(0.7068629,0,0,-0.70686292,3.5176451,1161.0522)"
       style="fill:#000000"
       id="g9"><path
         d="m 8,1625 c 0,-0.6 -0.2,-1 -0.6,-1.4 C 7,1623.2 6.5,1623 6,1623 c -0.6,0 -1,0.2 -1.4,0.6 -0.4,0.4 -0.6,0.9 -0.6,1.4 0,0.5 0.2,1 0.6,1.4 0.4,0.4 0.9,0.6 1.4,0.6 0.5,0 1,-0.2 1.4,-0.6 0.4,-0.4 0.6,-0.9 0.6,-1.4 z"
         id="path12"
         inkscape:connector-curvature="0" /><path
         d="m 14,1625 c 0,-0.6 -0.2,-1 -0.6,-1.4 -0.4,-0.4 -0.9,-0.6 -1.4,-0.6 -0.6,0 -1,0.2 -1.4,0.6 -0.4,0.4 -0.6,0.9 -0.6,1.4 0,0.5 0.2,1 0.6,1.4 0.4,0.4 0.9,0.6 1.4,0.6 0.5,0 1,-0.2 1.4,-0.6 0.4,-0.4 0.6,-0.9 0.6,-1.4 z"
         id="path14"
         inkscape:connector-curvature="0" /><path
         d="m 20,1625 c 0,-0.6 -0.2,-1 -0.6,-1.4 -0.4,-0.4 -0.9,-0.6 -1.4,-0.6 -0.6,0 -1,0.2 -1.4,0.6 -0.4,0.4 -0.6,0.9 -0.6,1.4 0,0.5 0.2,1 0.6,1.4 0.4,0.4 0.9,0.6 1.4,0.6 0.5,0 1,-0.2 1.4,-0.6 0.4,-0.4 0.6,-0.9 0.6,-1.4 z"
         id="path16"
         inkscape:connector-curvature="0" /></g></g></svg>